<svg id="Layer_1" enable-background="new 0 0 512.383 512.383" height="512" viewBox="0 0 512.383 512.383" width="512" xmlns="http://www.w3.org/2000/svg"><g><path clip-rule="evenodd" d="m415.948 162.307c-6.801-82.379-75.816-147.115-159.95-147.115-84.204 0-153.262 64.843-159.966 147.319l61.107 31.363c-1.077-5.897-1.641-11.974-1.641-18.183 0-55.504 44.996-100.5 100.5-100.5s100.5 44.996 100.5 100.5c0 6.487-.615 12.83-1.789 18.975z" fill="#ff8856" fill-rule="evenodd"/><g><path d="m96.048 177.512c-.408 0-.818-.016-1.232-.05-8.257-.671-14.406-7.909-13.735-16.166 3.56-43.794 23.333-84.414 55.678-114.377 32.527-30.132 74.874-46.727 119.239-46.727 44.326 0 86.646 16.569 119.162 46.655 32.331 29.915 52.125 70.48 55.737 114.225.682 8.256-5.459 15.502-13.715 16.184-8.259.681-15.502-5.459-16.184-13.715-6.173-74.775-69.865-133.349-145.001-133.349-75.23 0-138.929 58.655-145.016 133.535-.637 7.843-7.2 13.785-14.933 13.785z" fill="#fdbf00"/></g><g><path d="m354.726 209.669c-.934 0-1.881-.087-2.833-.269-8.137-1.555-13.473-9.412-11.917-17.549 1.01-5.284 1.522-10.721 1.522-16.159 0-47.145-38.355-85.5-85.5-85.5s-85.5 38.355-85.5 85.5c0 5.206.47 10.416 1.396 15.486 1.489 8.149-3.91 15.963-12.06 17.452-8.146 1.49-15.963-3.909-17.452-12.059-1.25-6.845-1.885-13.87-1.885-20.879 0-63.687 51.813-115.5 115.5-115.5s115.5 51.813 115.5 115.5c0 7.323-.691 14.655-2.055 21.791-1.373 7.185-7.661 12.186-14.716 12.186z" fill="#b760ea"/></g><g><path d="m496.756 512.191h-80.808l-165.887-55.213-154.029 55.213h-80.416c-8.488 0-15.369-6.881-15.369-15.369v-298.262c0-8.488 6.881-15.369 15.369-15.369h481.139c8.488 0 15.369 6.881 15.369 15.369v298.262c.001 8.488-6.88 15.369-15.368 15.369z" fill="#bee75e"/></g><path d="m496.756 183.191h-240.631v275.805l159.823 53.195h80.808c8.488 0 15.369-6.881 15.369-15.369v-298.262c0-8.489-6.881-15.369-15.369-15.369z" fill="#00cb75"/><path d="m328.997 244.168c-2.125-5.981-7.786-9.977-14.134-9.977h-116.756c-6.348 0-12.009 3.996-14.134 9.978l-95.529 268.022h336.005z" fill="#6b5c59"/><path d="m256.125 512.191h168.324l-95.452-268.023c-2.125-5.981-7.786-9.977-14.134-9.977h-58.738z" fill="#4f4540"/><path clip-rule="evenodd" d="m415.948 162.307c-6.798-82.338-75.747-147.048-159.823-147.114v60c55.446.069 100.373 45.037 100.373 100.498 0 6.487-.615 12.83-1.789 18.974z" fill="#ff435b" fill-rule="evenodd"/><g><path d="m256.501 334.192c-8.284 0-15-6.716-15-15v-16c0-8.284 6.716-15 15-15s15 6.716 15 15v16c0 8.284-6.716 15-15 15z" fill="#fff4f4"/></g><g><path d="m256.501 410.192c-8.284 0-15-6.716-15-15v-16c0-8.284 6.716-15 15-15s15 6.716 15 15v16c0 8.284-6.716 15-15 15z" fill="#fff4f4"/></g><g><path d="m256.501 486.192c-8.284 0-15-6.716-15-15v-16c0-8.284 6.716-15 15-15s15 6.716 15 15v16c0 8.284-6.716 15-15 15z" fill="#fff4f4"/></g><path d="m430.897 161.072c-3.612-43.745-23.406-84.311-55.737-114.225-32.486-30.057-74.755-46.622-119.035-46.654v30c75.08.066 138.704 58.614 144.874 133.348.682 8.256 7.925 14.396 16.184 13.715 8.255-.682 14.396-7.927 13.714-16.184z" fill="#ff8856"/><path d="m256.125 60.194v30.002c47.087.069 85.373 38.394 85.373 85.497 0 5.438-.512 10.875-1.522 16.159-1.555 8.137 3.781 15.994 11.917 17.549.952.182 1.898.27 2.833.269 7.055 0 13.343-5.001 14.717-12.187 1.364-7.136 2.055-14.467 2.055-21.791 0-63.645-51.744-115.429-115.373-115.498z" fill="#a24bdb"/><path d="m512.383 162.42c.012-7.772-5.915-14.266-13.656-14.962-2.031-.183-5.014-.266-6.925-.266-11.824 0-23.372 3.215-33.421 9.194-11.836-6.04-24.928-9.194-38.401-9.194-25.744 0-50.055 11.877-65.992 31.648-5.032-1.226-10.209-1.844-15.491-1.844-5.686 0-11.243.713-16.621 2.126-15.927-19.952-40.306-31.931-66.227-31.931-26.203 0-50.694 12.148-66.601 32.401-5.908-1.713-12.061-2.597-18.247-2.597-5.282 0-10.459.618-15.491 1.844-15.937-19.771-40.248-31.648-65.992-31.648-13.544 0-26.703 3.188-38.588 9.29-10.428-5.855-23.311-9.29-35.732-9.29-5.716 0-11.095 3.263-13.646 8.753-.956 2.058-1.365 4.33-1.352 6.599l.584 101.649h511.54z" fill="#00cb75"/><path d="m498.727 147.458c-2.031-.183-5.014-.266-6.925-.266-11.824 0-23.372 3.215-33.421 9.194-11.836-6.04-24.928-9.194-38.401-9.194-25.744 0-50.055 11.877-65.992 31.648-5.032-1.226-10.209-1.844-15.491-1.844-5.686 0-11.243.713-16.621 2.126-15.829-19.83-40.008-31.778-65.751-31.924v116.994h256l.258-101.772c.011-7.772-5.915-14.266-13.656-14.962z" fill="#00ab5e"/><g fill="#f6efea"><path d="m256.501 288.193c-.127 0-.25.016-.376.019v45.962c.126.003.249.019.376.019 8.284 0 15-6.716 15-15v-16c0-8.285-6.716-15-15-15z"/><path d="m256.501 364.193c-.127 0-.25.016-.376.019v45.962c.126.003.249.019.376.019 8.284 0 15-6.716 15-15v-16c0-8.285-6.716-15-15-15z"/><path d="m256.501 440.193c-.127 0-.25.016-.376.019v45.962c.126.003.249.019.376.019 8.284 0 15-6.716 15-15v-16c0-8.285-6.716-15-15-15z"/></g></g></svg>