<svg id="Capa_1" enable-background="new 0 0 512 512" height="512" viewBox="0 0 512 512" width="512" xmlns="http://www.w3.org/2000/svg"><g><g><g><g><g><g><g><g><g><path d="m378.22 323.911c3.76 7.46 2.06 16.59-4.14 22.2l-14.04 12.72c-4.75 4.3-11.28 5.85-17.45 4.15l-26.87-7.39c-1.36-.38-2.83.08-3.74 1.16l-19.54 23.23c-.34.55-.41 1.23-.19 1.84l22.53 62.53c-67.75 21.09-144.63 4.8-198.28-48.86-52.37-52.37-69.14-126.85-50.32-193.38l24.66 28.78c.77.9 1.94 1.36 3.12 1.25l72.75-7.43c1.88-.19 3.28-1.77 3.26-3.66l-.53-48.66c-.08-6.35 3.04-12.24 8.35-15.75l42.91-28.38c4.26-2.82 9.35-3.76 14.34-2.64s9.21 4.14 11.86 8.52l11.95 19.71c2.78 4.59 3.45 10.17 1.83 15.29-1.63 5.12-5.38 9.29-10.31 11.44l-13.49 5.91c-1.37.6-2.23 1.96-2.18 3.45l.42 12.43c.04 1.34.81 2.53 2 3.13l24.86 12.43c.97.48 2.1.51 3.1.07l50.85-22.34c.61-.27 1.13-.69 1.5-1.23l20-28.69c3.82-5.5 10.35-8.53 17.05-7.9l76.69 7.31c12.11 23.32 19.24 48.56 21.41 74.14l-90.41 16.57c-.72.14-1.38.48-1.91 1.01l-16.58 16.58c-.99.99-1.09 2.14-1.06 2.75.03.6.25 1.74 1.33 2.63l16.58 13.55c2.03 1.66 3.66 3.69 4.84 6.04z" fill="#31a7fb"/><g><path d="m450.17 291.001c-.96 5.31-2.13 10.59-3.52 15.82-4.42.72-9.05 1.42-13.9 2.1-47.27 6.58-110.04 10.2-176.75 10.2s-129.48-3.62-176.75-10.2c-4.85-.68-9.48-1.38-13.9-2.1-1.39-5.23-2.56-10.51-3.52-15.82 7.53 1.34 16.26 2.68 26.36 3.98 45.73 5.9 105.33 9.14 167.81 9.14s122.08-3.24 167.81-9.14c10.1-1.3 18.83-2.64 26.36-3.98z" fill="#1c96f9"/></g><path d="m309.41 429.431 5.37 14.92c-25.66 7.99-52.62 10.62-79.14 7.89 25.53-2.63 50.64-10.24 73.77-22.81z" fill="#1c96f9"/><path d="m452.58 239.291-40.23 7.37c-1.4-29.6-9.42-58.93-24.08-85.6l42.9 4.09c12.11 23.32 19.24 48.56 21.41 74.14z" fill="#1c96f9"/><path d="m116.5 116.498c77.046-77.046 201.959-77.038 278.997 0 16.876 16.876 30.053 36.051 39.539 56.509l-81.265-7.698c-3.999-.378-7.895 1.425-10.186 4.723l-19.986 28.66c-1.165 1.684-2.779 3.015-4.652 3.833l-50.858 22.347c-3.03 1.33-6.502 1.244-9.461-.236l-24.866-12.429c-3.652-1.826-6.006-5.502-6.14-9.587l-.417-12.429c-.15-4.558 2.487-8.737 6.667-10.571l13.5-5.911c6.171-2.692 8.556-10.209 5.061-15.971l-11.941-19.702c-3.282-5.408-10.39-7.006-15.656-3.519l-42.915 28.385c-3.156 2.086-5.03 5.628-4.983 9.406l.535 48.662c.063 5.762-4.274 10.619-10.005 11.201l-72.748 7.429c-3.629.37-7.202-1.063-9.58-3.833l-21.245-24.803c8.092-34.619 25.622-67.482 52.605-94.466z" fill="#27e19d"/><path d="m354.781 116.496c-33.328-33.328-75.632-52.238-119.116-56.733 57.033-5.873 116.135 13.037 159.83 56.733 16.875 16.875 30.057 36.053 39.546 56.51l-42.661-4.038c-9.299-18.944-21.836-36.709-37.599-52.472z" fill="#26d192"/><path d="m338.38 268.144 16.58-16.58c1.597-1.597 3.642-2.67 5.863-3.078l90.967-16.687c7.159 58.213-11.603 119.006-56.294 163.697-25.296 25.296-55.743 42.282-87.96 50.966l-22.346-62.098c-1.083-3.009-.6-6.359 1.288-8.94l19.759-23.498c2.799-3.329 7.28-4.722 11.474-3.569l26.867 7.394c3.67 1.01 7.603.074 10.425-2.48l14.05-12.719c3.713-3.362 4.724-8.789 2.47-13.262l-12.848-25.494c-.701-1.392-1.687-2.621-2.894-3.608l-16.574-13.554c-5.101-4.171-5.484-11.833-.827-16.49z" fill="#27e19d"/><path d="m395.5 395.501c-25.3 25.29-55.75 42.28-87.96 50.96l-22.35-62.1c-1.08-3.01-.6-6.36 1.29-8.94l19.76-23.5c2.8-3.32 7.28-4.72 11.47-3.56l26.87 7.39c3.67 1.01 7.6.07 10.42-2.48l14.05-12.72c3.72-3.36 4.73-8.79 2.47-13.26l-12.85-25.5c-.7-1.39-1.68-2.62-2.89-3.6l-16.58-13.56c-5.09-4.17-5.48-11.83-.82-16.49l16.58-16.58c1.6-1.59 3.64-2.67 5.86-3.07l48.26-8.85 42.71-7.84c.56 4.57.96 9.16 1.2 13.75 2.85 53.91-16.31 108.76-57.49 149.95z" fill="#27e19d"/><path d="m395.495 395.498c-25.296 25.296-55.742 42.282-87.958 50.959l-4.872-13.527c18.822-9.289 36.465-21.77 52.116-37.432 42.816-42.816 61.839-100.417 57.055-156.371l39.957-7.331c7.154 58.213-11.601 119.006-56.298 163.702z" fill="#26d192"/></g></g></g></g></g></g><g><path d="m152.55 324.791 16.353-7.2c3.387-1.491 7.32-.991 10.226 1.3l12.458 9.821c1.765 1.391 3.947 2.148 6.194 2.148h36.933c4.222 0 7.99 2.651 9.417 6.625l5.42 15.099c.87 2.424.772 5.09-.274 7.444l-15.628 35.162c-2.083 4.686-7.371 7.039-12.246 5.448l-46.781-15.265c-4.045-1.32-6.812-5.053-6.899-9.307l-.354-17.348c-.092-4.486-3.158-8.362-7.503-9.483l-5.656-1.46c-4.306-1.111-7.361-4.93-7.5-9.375l-.129-4.138c-.127-4.08 2.235-7.827 5.969-9.471z" fill="#27e19d"/></g></g></g><g><path d="m481.62 234.04c-8.43-2.4-18.6-4.62-30.42-6.65.76 5.16 1.31 10.34 1.65 15.53 30.91 5.65 40.56 11.16 43.33 13.34-3.5 2.76-17.97 10.81-72.45 17.77-45.72 5.84-105.29 9.06-167.73 9.06s-122.01-3.22-167.73-9.06c-54.47-6.96-68.95-15.01-72.45-17.77 2.77-2.18 12.43-7.69 43.34-13.34.34-5.19.88-10.37 1.64-15.52-11.81 2.02-21.97 4.24-30.4 6.64-14.15 4.01-30.4 10.17-30.4 22.22 0 11.14 14.1 17.03 24.7 20.49 12.94 4.23 31.3 8 54.56 11.21 47.26 6.53 110.03 10.13 176.74 10.13s129.48-3.6 176.74-10.13c23.26-3.21 41.62-6.98 54.56-11.21 10.6-3.46 24.7-9.35 24.7-20.49 0-12.05-16.24-18.2-30.38-22.22z" fill="#fb8189"/></g><path d="m409.11 219.131c1.32 6.94 2.25 13.93 2.81 20.94-.44-.05-.87-.1-1.31-.15-5.81-.65-10.01-5.9-9.34-11.72.5-4.48 3.72-8 7.84-9.07z" fill="#31a7fb"/><g><g><path d="m403.356 310.673c17.358-17.401 17.345-45.578-.039-62.962-15.603-15.603-39.9-17.212-57.297-4.828-3.375 2.403-7.957 2.403-11.333 0-17.397-12.384-41.694-10.775-57.297 4.828-17.384 17.384-17.397 45.561-.039 62.962l56.957 56.959c3.339 3.339 8.752 3.339 12.091 0z" fill="#fb4a59"/><path d="m403.359 310.672-56.957 56.957c-3.343 3.343-8.755 3.343-12.098 0l-11.303-11.303 54.358-54.358c17.356-17.398 17.347-45.578-.043-62.959-1.59-1.599-3.275-3.044-5.036-4.352 11.243.12 22.46 4.471 31.035 13.055 17.383 17.382 17.4 45.562.044 62.96z" fill="#f82f40"/></g></g><g><g><path d="m336.476 219.721c9.315-9.338 9.308-24.459-.021-33.789-7.842-7.842-19.776-9.097-28.928-3.766-2.989 1.741-6.733 1.741-9.722 0-9.152-5.331-21.086-4.077-28.928 3.766-9.329 9.329-9.336 24.451-.021 33.789l30.566 30.567c1.792 1.792 4.697 1.792 6.489 0z" fill="#f3eae6"/></g><g><path d="m336.48 219.721-30.57 30.57c-1.79 1.79-4.7 1.79-6.49 0l-11.21-11.21 27.81-27.81c8.82-8.84 9.28-22.85 1.39-32.24.71-.07 1.43-.1 2.14-.1 6.12 0 12.24 2.33 16.9 7 9.33 9.33 9.34 24.45.03 33.79z" fill="#e0d3ce"/></g></g><g><g><path d="m97.039 298.775c7.52-7.539 7.515-19.746-.017-27.278-6.163-6.163-15.456-7.286-22.761-3.371-2.806 1.504-6.228 1.504-9.034 0-7.305-3.915-16.598-2.791-22.761 3.371-7.532 7.532-7.537 19.739-.017 27.278l24.676 24.677c1.447 1.447 3.792 1.447 5.238 0z" fill="#fb4a59"/></g><g><path d="m97.043 298.771-24.68 24.68c-1.45 1.45-3.79 1.45-5.24 0l-9.63-9.63 19.65-19.65c7.52-7.54 7.51-19.74-.02-27.28l-.01-.01c2.02-.69 4.14-1.04 6.26-1.04 4.94 0 9.88 1.89 13.65 5.66 7.53 7.53 7.54 19.74.02 27.27z" fill="#f82f40"/></g></g><g><g><path d="m328.53 145.696c-1.989 0-3.897-.79-5.304-2.197l-5.529-5.529c-2.929-2.929-2.928-7.678 0-10.606 2.929-2.929 7.677-2.928 10.607.001l.225.225.225-.225c2.929-2.93 7.677-2.929 10.607-.001 2.929 2.929 2.929 7.678 0 10.606l-5.529 5.529c-1.405 1.407-3.312 2.197-5.302 2.197z" fill="#1ec186"/></g></g><g><g><path d="m230.114 259.134c-1.989 0-3.897-.79-5.304-2.197l-5.529-5.529c-2.929-2.929-2.928-7.678 0-10.606 2.929-2.928 7.678-2.929 10.607.001l.225.225.225-.225c2.929-2.93 7.677-2.929 10.607-.001 2.929 2.929 2.929 7.678 0 10.606l-5.529 5.529c-1.405 1.407-3.312 2.197-5.302 2.197z" fill="#1c96f9"/></g></g><g><g><path d="m213.042 369.201c-1.919 0-3.838-.732-5.303-2.196l-5.529-5.528c-2.929-2.929-2.929-7.678 0-10.606 2.929-2.93 7.677-2.929 10.607-.001l.226.226.226-.226c2.929-2.929 7.678-2.928 10.607.001s2.928 7.678 0 10.606l-5.529 5.528c-1.467 1.464-3.386 2.196-5.305 2.196z" fill="#26d192"/></g></g><g><g><path d="m291.607 114.593c-1.919 0-3.838-.732-5.303-2.196l-5.529-5.528c-2.929-2.929-2.929-7.678 0-10.606 2.929-2.93 7.677-2.929 10.607-.001l.226.226.226-.226c2.929-2.929 7.678-2.928 10.607.001s2.928 7.678 0 10.606l-5.529 5.528c-1.466 1.463-3.385 2.196-5.305 2.196z" fill="#72f4c3"/></g></g><g><g><path d="m130.826 202.439c-1.919 0-3.838-.732-5.303-2.196l-5.529-5.528c-2.929-2.929-2.929-7.678 0-10.606 2.929-2.93 7.677-2.929 10.607-.001l.226.226.226-.226c2.929-2.928 7.678-2.929 10.607.001 2.929 2.929 2.928 7.678 0 10.606l-5.529 5.528c-1.466 1.464-3.385 2.196-5.305 2.196z" fill="#26d192"/></g></g></g></svg>