<svg id="Capa_1" enable-background="new 0 0 512 512" height="512" viewBox="0 0 512 512" width="512" xmlns="http://www.w3.org/2000/svg"><g><g><path d="m508.858 188.752-246.327 150.592c-4.008 2.441-9.055 2.441-13.063 0l-246.336-150.592v-10.302c2.06-3.739 5.089-6.943 8.849-9.241l237.488-145.182c4.008-2.452 9.055-2.452 13.063 0l237.487 145.183c3.76 2.297 6.768 5.501 8.839 9.241z" fill="#fee265"/><path d="m508.858 178.451v10.302l-29.288 17.905c-1.968-2.658-4.461-4.955-7.376-6.758l-250.592-153.189c-1.895-1.154-3.987-1.793-6.109-1.916l33.975-20.768c4.008-2.452 9.055-2.452 13.063 0l237.488 145.183c3.76 2.297 6.768 5.501 8.839 9.241z" fill="#fdd330"/><g><path d="m392.746 304.669c37.674-37.769 37.648-98.926-.085-136.658-35.607-35.607-92.074-37.637-130.062-6.093-3.832 3.182-9.366 3.182-13.198 0-37.988-31.544-94.455-29.514-130.062 6.093-37.733 37.733-37.759 98.89-.085 136.658l129.461 129.465c4.023 4.023 10.546 4.023 14.569 0z" fill="#fb4a59"/><path d="m392.746 304.667-129.463 129.463c-4.018 4.028-10.549 4.028-14.567 0l-21.778-21.778 123.127-123.137c18.88-18.924 28.278-43.715 28.219-68.491-.015-6.304-5.279-11.217-11.583-11.194-.037 0-.075 0-.112 0-8.262 0-16.019-3.214-21.86-9.045l-54.579-54.589c10.982-4.141 22.561-6.202 34.14-6.202 24.745 0 49.49 9.436 68.373 28.32 37.726 37.725 37.757 98.887.083 136.653z" fill="#f82f40"/></g><g><path d="m442.5 117.279c20.915-20.967 20.9-54.919-.047-75.866-19.023-19.023-48.77-20.783-69.779-5.282-3.618 2.67-8.559 2.67-12.177 0-21.008-15.501-50.756-13.742-69.779 5.282-20.947 20.947-20.962 54.899-.047 75.866l68.63 68.632c4.023 4.023 10.546 4.023 14.569 0z" fill="#27e19d"/><path d="m442.504 117.277-68.631 68.631c-4.028 4.028-10.549 4.028-14.577 0l-13.619-13.619 65.499-65.499c20.913-20.964 20.902-54.919-.051-75.863-1.916-1.926-3.946-3.667-6.068-5.244 13.547.144 27.063 5.388 37.396 15.731 20.943 20.944 20.964 54.899.051 75.863z" fill="#26d192"/></g></g><g><path d="m501.698 479.516c5.69 0 10.302-4.612 10.302-10.302v-278.637c0-4.319-1.114-8.475-3.142-12.131l-246.33 150.6c-4.006 2.441-9.051 2.441-13.057 0l-246.341-150.6c-2.028 3.656-3.13 7.812-3.13 12.131v278.637c0 5.69 4.612 10.302 10.302 10.302z" fill="#faf7f7"/><path d="m512 479.511c0 5.697-4.615 10.302-10.302 10.302h-491.396c-5.687-.001-10.302-4.605-10.302-10.302z" fill="#faf7f7"/><path d="m512 190.576v278.633c0 5.697-4.615 10.302-10.302 10.302h-44.38c5.687 0 10.302-4.605 10.302-10.302v-265.55l41.238-25.209c2.029 3.648 3.142 7.81 3.142 12.126z" fill="#f3eae6"/></g><g><path d="m163.484 407.636c-6.292 0-9.847-1.572-12.444-2.72-1.975-.873-3.167-1.4-6.194-1.4s-4.218.527-6.193 1.4c-2.596 1.148-6.152 2.72-12.443 2.72s-9.846-1.572-12.442-2.721c-1.975-.873-3.166-1.4-6.192-1.4-4.268 0-7.726-3.459-7.726-7.726s3.459-7.726 7.726-7.726c6.291 0 9.846 1.572 12.442 2.721 1.975.873 3.166 1.4 6.192 1.4 3.027 0 4.218-.527 6.193-1.4 2.596-1.148 6.152-2.72 12.443-2.72 6.292 0 9.847 1.572 12.444 2.72 1.975.873 3.167 1.4 6.194 1.4s4.219-.527 6.194-1.4c2.597-1.148 6.152-2.72 12.443-2.72 4.268 0 7.726 3.459 7.726 7.726s-3.459 7.726-7.726 7.726c-3.027 0-4.218.527-6.193 1.4-2.597 1.147-6.152 2.72-12.444 2.72z" fill="#e22334"/></g><g><path d="m148.326 438.588c-6.292 0-9.847-1.572-12.444-2.72-1.975-.873-3.167-1.4-6.194-1.4s-4.218.527-6.193 1.4c-2.596 1.148-6.152 2.72-12.443 2.72s-9.846-1.572-12.442-2.721c-1.975-.873-3.166-1.4-6.192-1.4-4.268 0-7.726-3.459-7.726-7.726s3.459-7.726 7.726-7.726c6.291 0 9.846 1.572 12.442 2.721 1.975.873 3.166 1.4 6.192 1.4 3.027 0 4.218-.527 6.193-1.4 2.596-1.148 6.152-2.72 12.443-2.72 6.292 0 9.847 1.572 12.444 2.72 1.975.873 3.167 1.4 6.194 1.4s4.219-.527 6.194-1.4c2.597-1.148 6.152-2.72 12.444-2.72 4.268 0 7.726 3.459 7.726 7.726s-3.459 7.726-7.726 7.726c-3.027 0-4.219.527-6.194 1.4-2.597 1.148-6.152 2.72-12.444 2.72z" fill="#e22334"/></g><g><path d="m75.38 357.927c-22.013 0-39.923 17.909-39.923 39.923s17.909 39.923 39.923 39.923 39.923-17.909 39.923-39.923-17.91-39.923-39.923-39.923zm0 15.452c3.934 0 7.651.939 10.947 2.595l-32.822 32.822c-1.656-3.297-2.595-7.013-2.595-10.947 0-13.492 10.977-24.47 24.47-24.47zm0 48.941c-3.934 0-7.651-.939-10.948-2.596l32.823-32.822c1.657 3.297 2.595 7.013 2.595 10.947 0 13.493-10.977 24.471-24.47 24.471z" fill="#fb4a59"/></g><g><path d="m451.685 409.787h-22.044c-4.268 0-7.726-3.459-7.726-7.726s3.459-7.726 7.726-7.726h22.044c4.268 0 7.726 3.459 7.726 7.726s-3.458 7.726-7.726 7.726z" fill="#cdbfbb"/></g><g><path d="m451.685 435.892h-73.553c-4.268 0-7.726-3.459-7.726-7.726s3.459-7.726 7.726-7.726h73.553c4.268 0 7.726 3.459 7.726 7.726s-3.458 7.726-7.726 7.726z" fill="#cdbfbb"/></g><g><path d="m443.159 360.667h-53.696c-2.845 0-5.151-2.306-5.151-5.151v-33.092c0-2.845 2.306-5.151 5.151-5.151h53.696c2.845 0 5.151 2.306 5.151 5.151v33.092c0 2.845-2.306 5.151-5.151 5.151z" fill="#23f1a8"/><circle cx="448.31" cy="311.937" fill="#fb4a59" r="25.695"/></g><g><path d="m43.184 293.969c-4.268 0-7.726-3.459-7.726-7.726v-24.876c0-4.267 3.459-7.726 7.726-7.726s7.726 3.459 7.726 7.726v24.876c0 4.267-3.458 7.726-7.726 7.726z" fill="#cdbfbb"/></g></g></svg>